<svg width="117" height="119" viewBox="0 0 117 119" fill="none" xmlns="http://www.w3.org/2000/svg">
	<mask id="mask0_1299_7498" style="mask-type:alpha" maskUnits="userSpaceOnUse" x="0" y="0" width="117" height="119">
		<rect width="117" height="118.083" fill="url(#paint0_radial_1299_7498)"/>
	</mask>
	<g mask="url(#mask0_1299_7498)">
		<line x1="4.37114e-09" y1="0.672305" x2="117" y2="0.672316" stroke="#BEBCE4" stroke-width="0.1"/>
		<line x1="4.37114e-09" y1="13.6722" x2="117" y2="13.6722" stroke="#BEBCE4" stroke-width="0.1"/>
		<line x1="4.37114e-09" y1="26.6722" x2="117" y2="26.6722" stroke="#BEBCE4" stroke-width="0.1"/>
		<line x1="4.37114e-09" y1="39.3111" x2="117" y2="39.3112" stroke="#BEBCE4" stroke-width="0.1"/>
		<line x1="4.37114e-09" y1="52.311" x2="117" y2="52.311" stroke="#BEBCE4" stroke-width="0.1"/>
		<line x1="4.37114e-09" y1="64.95" x2="117" y2="64.95" stroke="#BEBCE4" stroke-width="0.1"/>
		<line x1="4.37114e-09" y1="77.95" x2="117" y2="77.95" stroke="#BEBCE4" stroke-width="0.1"/>
		<line x1="4.37114e-09" y1="90.5889" x2="117" y2="90.5889" stroke="#BEBCE4" stroke-width="0.1"/>
		<line x1="4.37114e-09" y1="103.589" x2="117" y2="103.589" stroke="#BEBCE4" stroke-width="0.1"/>
		<line x1="4.37114e-09" y1="116.228" x2="117" y2="116.228" stroke="#BEBCE4" stroke-width="0.1"/>
		<line x1="116.328" y1="6.55671e-09" x2="116.328" y2="117" stroke="#BEBCE4" stroke-width="0.1"/>
		<line x1="103.328" y1="6.55671e-09" x2="103.328" y2="117" stroke="#BEBCE4" stroke-width="0.1"/>
		<line x1="90.3278" y1="6.55671e-09" x2="90.3278" y2="117" stroke="#BEBCE4" stroke-width="0.1"/>
		<line x1="77.6889" y1="6.55671e-09" x2="77.6888" y2="117" stroke="#BEBCE4" stroke-width="0.1"/>
		<line x1="64.6889" y1="6.55671e-09" x2="64.6888" y2="117" stroke="#BEBCE4" stroke-width="0.1"/>
		<line x1="52.05" y1="6.55671e-09" x2="52.05" y2="117" stroke="#BEBCE4" stroke-width="0.1"/>
		<line x1="39.0499" y1="6.55671e-09" x2="39.0499" y2="117" stroke="#BEBCE4" stroke-width="0.1"/>
		<line x1="26.411" y1="6.55671e-09" x2="26.411" y2="117" stroke="#BEBCE4" stroke-width="0.1"/>
		<line x1="13.4111" y1="6.55671e-09" x2="13.4111" y2="117" stroke="#BEBCE4" stroke-width="0.1"/>
		<line x1="0.77229" y1="6.55671e-09" x2="0.772275" y2="117" stroke="#BEBCE4" stroke-width="0.1"/>
		<circle cx="0.637495" cy="0.637128" r="0.637128" fill="#BEBCE4"/>
		<circle cx="13.4955" cy="0.637128" r="0.637128" fill="#BEBCE4"/>
		<circle cx="26.354" cy="0.637128" r="0.637128" fill="#BEBCE4"/>
		<circle cx="39.2125" cy="0.637128" r="0.637128" fill="#BEBCE4"/>
		<circle cx="52.0707" cy="0.637128" r="0.637128" fill="#BEBCE4"/>
		<circle cx="64.9294" cy="0.637128" r="0.637128" fill="#BEBCE4"/>
		<circle cx="77.7876" cy="0.637128" r="0.637128" fill="#BEBCE4"/>
		<circle cx="90.6461" cy="0.637128" r="0.637128" fill="#BEBCE4"/>
		<circle cx="103.504" cy="0.637128" r="0.637128" fill="#BEBCE4"/>
		<circle cx="116.363" cy="0.637128" r="0.637128" fill="#BEBCE4"/>
		<circle cx="0.637128" cy="13.4956" r="0.637128" fill="#BEBCE4"/>
		<circle cx="13.4955" cy="13.4956" r="0.637128" fill="#BEBCE4"/>
		<circle cx="26.354" cy="13.4956" r="0.637128" fill="#BEBCE4"/>
		<circle cx="39.2125" cy="13.4956" r="0.637128" fill="#BEBCE4"/>
		<circle cx="52.0707" cy="13.4956" r="0.637128" fill="#BEBCE4"/>
		<circle cx="64.9294" cy="13.4956" r="0.637128" fill="#BEBCE4"/>
		<circle cx="77.7876" cy="13.4956" r="0.637128" fill="#BEBCE4"/>
		<circle cx="90.6461" cy="13.4956" r="0.637128" fill="#BEBCE4"/>
		<circle cx="103.504" cy="13.4956" r="0.637128" fill="#BEBCE4"/>
		<circle cx="116.363" cy="13.4956" r="0.637128" fill="#BEBCE4"/>
		<circle cx="0.637128" cy="26.354" r="0.637128" fill="#BEBCE4"/>
		<circle cx="13.4955" cy="26.354" r="0.637128" fill="#BEBCE4"/>
		<circle cx="26.354" cy="26.354" r="0.637128" fill="#BEBCE4"/>
		<circle cx="39.2125" cy="26.354" r="0.637128" fill="#BEBCE4"/>
		<circle cx="52.0707" cy="26.354" r="0.637128" fill="#BEBCE4"/>
		<circle cx="64.9294" cy="26.354" r="0.637128" fill="#BEBCE4"/>
		<circle cx="77.7876" cy="26.354" r="0.637128" fill="#BEBCE4"/>
		<circle cx="90.6461" cy="26.354" r="0.637128" fill="#BEBCE4"/>
		<circle cx="103.504" cy="26.354" r="0.637128" fill="#BEBCE4"/>
		<circle cx="116.363" cy="26.354" r="0.637128" fill="#BEBCE4"/>
		<circle cx="0.637128" cy="39.2124" r="0.637128" fill="#BEBCE4"/>
		<circle cx="13.4955" cy="39.2124" r="0.637128" fill="#BEBCE4"/>
		<circle cx="26.354" cy="39.2124" r="0.637128" fill="#BEBCE4"/>
		<circle cx="39.2125" cy="39.2124" r="0.637128" fill="#BEBCE4"/>
		<circle cx="52.0707" cy="39.2124" r="0.637128" fill="#BEBCE4"/>
		<circle cx="64.9294" cy="39.2124" r="0.637128" fill="#BEBCE4"/>
		<circle cx="77.7876" cy="39.2124" r="0.637128" fill="#BEBCE4"/>
		<circle cx="90.6461" cy="39.2124" r="0.637128" fill="#BEBCE4"/>
		<circle cx="103.504" cy="39.2124" r="0.637128" fill="#BEBCE4"/>
		<circle cx="116.363" cy="39.2124" r="0.637128" fill="#BEBCE4"/>
		<circle cx="0.637128" cy="52.0707" r="0.637128" fill="#BEBCE4"/>
		<circle cx="13.4955" cy="52.0707" r="0.637128" fill="#BEBCE4"/>
		<circle cx="26.354" cy="52.0707" r="0.637128" fill="#BEBCE4"/>
		<circle cx="39.2125" cy="52.0707" r="0.637128" fill="#BEBCE4"/>
		<circle cx="52.0707" cy="52.0707" r="0.637128" fill="#BEBCE4"/>
		<circle cx="64.9294" cy="52.0707" r="0.637128" fill="#BEBCE4"/>
		<circle cx="77.7876" cy="52.0707" r="0.637128" fill="#BEBCE4"/>
		<circle cx="90.6461" cy="52.0707" r="0.637128" fill="#BEBCE4"/>
		<circle cx="103.504" cy="52.0707" r="0.637128" fill="#BEBCE4"/>
		<circle cx="116.363" cy="52.0707" r="0.637128" fill="#BEBCE4"/>
		<circle cx="0.637128" cy="64.9292" r="0.637128" fill="#BEBCE4"/>
		<circle cx="13.4955" cy="64.9292" r="0.637128" fill="#BEBCE4"/>
		<circle cx="26.354" cy="64.9292" r="0.637128" fill="#BEBCE4"/>
		<circle cx="39.2125" cy="64.9292" r="0.637128" fill="#BEBCE4"/>
		<circle cx="52.0707" cy="64.9292" r="0.637128" fill="#BEBCE4"/>
		<circle cx="64.9294" cy="64.9292" r="0.637128" fill="#BEBCE4"/>
		<circle cx="77.7876" cy="64.9292" r="0.637128" fill="#BEBCE4"/>
		<circle cx="90.6461" cy="64.9292" r="0.637128" fill="#BEBCE4"/>
		<circle cx="103.504" cy="64.9292" r="0.637128" fill="#BEBCE4"/>
		<circle cx="116.363" cy="64.9292" r="0.637128" fill="#BEBCE4"/>
		<circle cx="0.637128" cy="77.7876" r="0.637128" fill="#BEBCE4"/>
		<circle cx="13.4955" cy="77.7876" r="0.637128" fill="#BEBCE4"/>
		<circle cx="26.354" cy="77.7876" r="0.637128" fill="#BEBCE4"/>
		<circle cx="39.2125" cy="77.7876" r="0.637128" fill="#BEBCE4"/>
		<circle cx="52.0707" cy="77.7876" r="0.637128" fill="#BEBCE4"/>
		<circle cx="64.9294" cy="77.7876" r="0.637128" fill="#BEBCE4"/>
		<circle cx="77.7876" cy="77.7876" r="0.637128" fill="#BEBCE4"/>
		<circle cx="90.6461" cy="77.7876" r="0.637128" fill="#BEBCE4"/>
		<circle cx="103.504" cy="77.7876" r="0.637128" fill="#BEBCE4"/>
		<circle cx="116.363" cy="77.7876" r="0.637128" fill="#BEBCE4"/>
		<circle cx="0.637128" cy="90.6461" r="0.637128" fill="#BEBCE4"/>
		<circle cx="13.4955" cy="90.6461" r="0.637128" fill="#BEBCE4"/>
		<circle cx="26.354" cy="90.6461" r="0.637128" fill="#BEBCE4"/>
		<circle cx="39.2125" cy="90.6461" r="0.637128" fill="#BEBCE4"/>
		<circle cx="52.0707" cy="90.6461" r="0.637128" fill="#BEBCE4"/>
		<circle cx="64.9294" cy="90.6461" r="0.637128" fill="#BEBCE4"/>
		<circle cx="77.7876" cy="90.6461" r="0.637128" fill="#BEBCE4"/>
		<circle cx="90.6461" cy="90.6461" r="0.637128" fill="#BEBCE4"/>
		<circle cx="103.504" cy="90.6461" r="0.637128" fill="#BEBCE4"/>
		<circle cx="116.363" cy="90.6461" r="0.637128" fill="#BEBCE4"/>
		<circle cx="0.637128" cy="103.504" r="0.637128" fill="#BEBCE4"/>
		<circle cx="13.4955" cy="103.504" r="0.637128" fill="#BEBCE4"/>
		<circle cx="26.354" cy="103.504" r="0.637128" fill="#BEBCE4"/>
		<circle cx="39.2125" cy="103.504" r="0.637128" fill="#BEBCE4"/>
		<circle cx="52.0707" cy="103.504" r="0.637128" fill="#BEBCE4"/>
		<circle cx="64.9294" cy="103.504" r="0.637128" fill="#BEBCE4"/>
		<circle cx="77.7876" cy="103.504" r="0.637128" fill="#BEBCE4"/>
		<circle cx="90.6461" cy="103.504" r="0.637128" fill="#BEBCE4"/>
		<circle cx="103.504" cy="103.504" r="0.637128" fill="#BEBCE4"/>
		<circle cx="116.363" cy="103.504" r="0.637128" fill="#BEBCE4"/>
		<circle cx="0.637128" cy="116.363" r="0.637128" fill="#BEBCE4"/>
		<circle cx="13.4955" cy="116.363" r="0.637128" fill="#BEBCE4"/>
		<circle cx="26.354" cy="116.363" r="0.637128" fill="#BEBCE4"/>
		<circle cx="39.2125" cy="116.363" r="0.637128" fill="#BEBCE4"/>
		<circle cx="52.0707" cy="116.363" r="0.637128" fill="#BEBCE4"/>
		<circle cx="64.9294" cy="116.363" r="0.637128" fill="#BEBCE4"/>
		<circle cx="77.7876" cy="116.363" r="0.637128" fill="#BEBCE4"/>
		<circle cx="90.6461" cy="116.363" r="0.637128" fill="#BEBCE4"/>
		<circle cx="103.504" cy="116.363" r="0.637128" fill="#BEBCE4"/>
		<circle cx="116.363" cy="116.363" r="0.637128" fill="#BEBCE4"/>
	</g>
	<defs>
		<radialGradient id="paint0_radial_1299_7498" cx="0" cy="0" r="1" gradientUnits="userSpaceOnUse" gradientTransform="translate(58.5 59.0417) rotate(90) scale(59.0417 58.5)">
			<stop stop-color="#C4C4C4"/>
			<stop offset="1" stop-color="#C4C4C4" stop-opacity="0.07"/>
		</radialGradient>
	</defs>
</svg>